<svg width="17" height="22" viewBox="0 0 17 22" fill="none" xmlns="http://www.w3.org/2000/svg">
<path fill-rule="evenodd" clip-rule="evenodd" d="M8.45396 0.000472761C8.74402 -0.00455685 9.04789 0.0306504 9.35177 0.101065C9.60499 0.16142 9.93649 0.256983 10.0884 0.322368C10.2404 0.382723 10.4798 0.498404 10.6179 0.573849C10.756 0.649293 10.9954 0.805211 11.1474 0.915862C11.2993 1.02651 11.5986 1.3132 11.815 1.54959C12.0498 1.8061 12.3076 2.15818 12.4503 2.40966C12.5839 2.64605 12.7542 3.01824 12.8325 3.23954C12.9108 3.46085 13.0167 3.8431 13.0627 4.09458C13.1087 4.34606 13.1502 4.73334 13.1502 5.37713L14.0158 5.39222C14.8629 5.40228 14.8813 5.40731 15.1714 5.55317C15.351 5.64873 15.5443 5.79962 15.6825 5.95553C15.8022 6.09133 15.9403 6.29755 15.9955 6.4082C16.0462 6.51885 16.1106 6.75524 16.1383 6.93631C16.1705 7.11737 16.3777 10.1502 16.6079 13.676C16.8381 17.2068 17.013 20.2145 16.9992 20.3654C16.9854 20.5163 16.9164 20.7778 16.8381 20.9438C16.7506 21.1399 16.6079 21.3411 16.4329 21.5121C16.281 21.668 16.06 21.829 15.6594 22H1.34057L1.08734 21.8893C0.940008 21.829 0.71901 21.668 0.567073 21.5121C0.392116 21.3411 0.249388 21.1399 0.161909 20.9438C0.0836391 20.7778 0.0145771 20.5163 0.000764667 20.3654C-0.0130477 20.2145 0.161909 17.2068 0.392116 13.676C0.622323 10.1502 0.829509 7.11737 0.857134 6.93631C0.884759 6.75524 0.963029 6.49873 1.03209 6.36293C1.10115 6.23216 1.25309 6.02092 1.3774 5.90021C1.49711 5.7795 1.7135 5.61855 1.86084 5.54311C2.11406 5.40731 2.1509 5.40228 3.84982 5.37713V4.84902C3.84982 4.5573 3.88205 4.17002 3.91888 3.9789C3.95111 3.7928 4.02478 3.51617 4.07082 3.36528C4.12147 3.2144 4.22736 2.9428 4.31024 2.76173C4.39311 2.58066 4.53584 2.31912 4.62332 2.18333C4.7154 2.0425 4.91798 1.78599 5.06992 1.61498C5.22186 1.43894 5.47969 1.18746 5.64544 1.05669C5.81118 0.920892 6.07822 0.734796 6.24397 0.634204C6.40972 0.538641 6.69978 0.397812 6.88855 0.327398C7.07732 0.251953 7.40882 0.151361 7.62521 0.101065C7.84161 0.0507689 8.21454 0.00550237 8.45396 0.000472761ZM7.62521 1.75581C7.51011 1.79102 7.29372 1.88155 7.14178 1.95699C6.98984 2.03747 6.73662 2.20344 6.57547 2.32918C6.41893 2.45492 6.18412 2.70138 6.0552 2.87238C5.92168 3.04842 5.74673 3.3502 5.65464 3.54132C5.56717 3.73245 5.45667 4.0644 5.41062 4.27061C5.35998 4.47683 5.32315 4.81381 5.32315 5.00997V5.37713H11.6769C11.6769 4.81381 11.64 4.47683 11.5894 4.27061C11.5433 4.0644 11.4374 3.74753 11.3546 3.56647C11.2717 3.3854 11.1198 3.11883 11.0139 2.96794C10.908 2.81706 10.6916 2.57061 10.5258 2.42475C10.3601 2.27889 10.0838 2.0777 9.90426 1.98214C9.7247 1.89161 9.45766 1.77593 9.30572 1.73569C9.15379 1.69545 8.86373 1.65019 8.66115 1.6351C8.45856 1.62001 8.18692 1.63007 8.06261 1.65019C7.93369 1.67533 7.74032 1.7206 7.62521 1.75581ZM1.87004 13.7263L1.44646 20.2396C1.65825 20.4157 1.99896 20.4207 8.5 20.4207C15.001 20.4207 15.3417 20.4157 15.4476 20.3302L15.5535 20.2396C14.8169 8.87271 14.6926 7.18276 14.6419 7.09726C14.5775 6.99164 14.5544 6.98661 13.8638 6.98661H13.1502L13.1548 11.2366C12.989 11.5032 12.8923 11.6239 12.8279 11.6742C12.7634 11.7295 12.6207 11.7849 12.5056 11.7999C12.3491 11.8201 12.2524 11.7999 12.105 11.7195C11.9853 11.6591 11.8656 11.5384 11.8058 11.4278C11.6999 11.2366 11.6999 11.2165 11.6907 9.11413L11.6769 6.98661H5.31854C5.30013 11.2165 5.30013 11.2366 5.19423 11.4278C5.13438 11.5384 5.01467 11.6591 4.89496 11.7195C4.74763 11.7999 4.65094 11.8201 4.4944 11.7999C4.3793 11.7849 4.23657 11.7295 4.17211 11.6742C4.10765 11.6239 4.00636 11.5032 3.94651 11.4076L3.84061 11.2366L3.88205 6.98661C2.44556 6.98661 2.42254 6.99163 2.35808 7.10229C2.30744 7.18276 2.18773 8.81738 1.87004 13.7263Z" fill="white"/>
</svg>
