<svg width="30" height="30" viewBox="0 0 30 30" fill="none" xmlns="http://www.w3.org/2000/svg">
<path d="M30 17.2403C29.9653 13.7428 28.1393 10.2042 27.7319 9.41433C27.2483 8.4768 26.5245 7.24186 25.4638 5.88972C24.7996 5.62065 24.0855 5.35834 23.3218 5.11296C21.8521 4.64081 20.472 4.31843 19.2261 4.09717C18.932 4.63489 18.638 5.17262 18.344 5.71034C17.3239 5.60542 16.1618 5.54111 14.8828 5.56438C13.6229 5.58723 12.4798 5.6913 11.4767 5.82965C11.2249 5.25215 10.9728 4.67466 10.7206 4.09717C9.72937 4.25497 8.62685 4.48259 7.44436 4.81385C6.39642 5.10746 5.44916 5.43704 4.60936 5.76957C4.10506 6.56875 3.48568 7.61543 2.84515 8.87618C2.56296 9.43125 2.08743 10.373 1.58525 11.6245C1.06064 12.9313 0.621912 14.0245 0.325339 15.5074C-0.0300412 17.2852 -0.0114261 18.7744 0.0101506 20.5255C0.0190351 21.2421 0.0478039 21.8387 0.0731882 22.2579C0.957408 22.8477 1.7384 23.3017 2.34127 23.6321C3.1248 24.0611 4.37836 24.7405 6.12142 25.3646C6.81568 25.6129 7.40586 25.7876 7.82259 25.9023C8.34762 25.0857 8.87265 24.2692 9.39768 23.4531C8.57862 23.0948 7.75955 22.7364 6.94049 22.3777C7.08729 22.1585 7.23452 21.9394 7.38133 21.7206C7.75024 21.9131 8.23889 22.1475 8.83035 22.3777C9.09603 22.4809 10.0086 22.827 11.2875 23.0943C13.0518 23.4633 14.4373 23.4582 14.8155 23.4527C15.6054 23.4417 16.1622 23.3723 16.9575 23.2733C17.9678 23.1477 19.13 22.9979 20.5486 22.5566C21.1159 22.3802 21.8034 22.1323 22.5645 21.7799C22.7955 21.9394 23.0265 22.0984 23.2575 22.2579C22.3966 22.656 21.5356 23.0546 20.6742 23.4527C20.8346 23.7281 21.0025 24.0069 21.1781 24.2891C21.5322 24.8577 21.891 25.3954 22.2493 25.9023C22.7976 25.7745 23.5647 25.5697 24.4544 25.2452C25.9051 24.7156 26.942 24.1368 27.7306 23.6922C28.3331 23.3524 29.1166 22.8799 29.9987 22.2584C29.9987 22.2055 29.9987 19.6835 29.9987 19.6298C30 17.2505 30 17.2589 30 17.2403ZM12.5893 16.4348C12.5462 16.898 12.5039 17.3482 12.1735 17.8148C11.6679 18.5294 10.8763 18.7329 10.6716 18.7786C9.98702 18.9326 9.43957 18.7689 9.33169 18.7346C8.55577 18.4905 8.15385 17.9303 7.94528 17.6393C7.82767 17.4751 7.60217 17.154 7.48329 16.6755C7.30771 15.9677 7.48202 15.3877 7.55267 15.1859C7.63982 14.9358 7.9347 14.1345 8.83204 13.6793C8.96869 13.6099 9.90198 13.1556 10.9719 13.5431C11.8443 13.8591 12.2428 14.5305 12.3583 14.748C12.6888 15.372 12.6346 15.947 12.5893 16.4348ZM22.5239 16.3472C22.5053 16.5634 22.4562 17.0664 22.108 17.5961C21.8876 17.9312 21.6304 18.1508 21.4611 18.2751C21.3105 18.386 21.014 18.5996 20.56 18.7134C19.9499 18.8662 19.4528 18.7388 19.3585 18.7134C18.8368 18.573 18.5195 18.2857 18.319 18.1C18.143 17.9371 17.827 17.6025 17.626 17.0922C17.3129 16.2969 17.4826 15.5899 17.5566 15.3399C17.6336 15.0797 18.0326 13.8748 19.2201 13.4995C19.8704 13.2939 20.4538 13.4335 20.6294 13.4775C20.8164 13.5245 21.2898 13.6497 21.7154 14.047C22.0915 14.3981 22.229 14.7746 22.339 15.0767C22.5717 15.7143 22.5328 16.2423 22.5239 16.3472Z" fill="white"/>
</svg>
