<svg width="30" height="30" viewBox="0 0 30 30" fill="none" xmlns="http://www.w3.org/2000/svg">
<g clip-path="url(#clip0_240_1206)">
<path d="M5.67445 3.03998C6.39089 2.49683 7.15562 2.02051 7.95904 1.61701C8.36912 1.41288 9.93517 0.654687 12.1911 0.268757C13.2646 0.0851332 15.5555 -0.283482 18.4079 0.380846C21.8739 1.1887 24.149 3.05274 25.1117 3.93896C26.6722 5.38748 27.9101 7.14851 28.7446 9.10732C29.1938 10.1608 30.5922 13.5703 29.7183 17.9067C28.7314 22.8067 25.494 25.6695 24.2132 26.6701C23.1197 27.524 20.2341 29.5379 16.0116 29.8537C14.5732 29.9612 9.9944 30.0947 5.78745 26.8574C2.07441 24.0028 0.82276 20.1927 0.394 18.3578C0.111501 17.1503 -0.560117 13.6104 0.95672 9.55659C1.28706 8.67036 2.61025 5.38563 5.67445 3.03998Z" fill="#92C4EA"/>
<path d="M8.17137 3.32607C8.73849 2.99336 9.32992 2.70397 9.94063 2.46035C10.6669 2.17373 11.4165 1.9501 12.181 1.79192C13.5509 1.50857 14.9552 1.42919 16.3483 1.55635C18.1648 1.7342 19.9283 2.26886 21.5377 3.12969C21.6603 3.19798 21.7674 3.29109 21.8521 3.40307C21.9234 3.49727 21.9767 3.60386 22.0093 3.71747C22.0565 3.87214 22.0559 4.03748 22.0074 4.19179C21.9624 4.32068 21.8845 4.43558 21.7814 4.52509C21.6783 4.6146 21.5536 4.67562 21.4197 4.70211C21.2874 4.72391 21.1518 4.71039 21.0264 4.66293C21.0264 4.66293 19.4194 4.08472 17.6456 3.52382C17.0699 3.34445 16.4771 3.22579 15.8768 3.16978C14.4679 3.01669 13.3762 3.21535 12.7328 3.32698C11.4103 3.56342 10.1356 4.01502 8.95918 4.66384C8.88214 4.68534 8.80301 4.69848 8.72315 4.70302C8.6097 4.7094 8.42197 4.71988 8.25111 4.62465C7.98547 4.47566 7.92259 4.16035 7.89753 4.03232C7.86651 3.9165 7.86651 3.79456 7.89753 3.67874C7.94498 3.53289 8.04182 3.40817 8.17137 3.32607Z" fill="#E8FDFB"/>
<path d="M1.42693 13.6987C1.34571 14.3484 1.31888 15.0038 1.34674 15.658C1.36086 15.9906 1.43786 17.435 2.06574 19.2521C2.25392 19.7929 2.87041 21.4651 4.2624 23.2832C5.14818 24.4404 6.1974 25.4627 7.37717 26.3182C7.53266 26.3635 7.69566 26.3771 7.85651 26.3583C8.00733 26.3401 8.2511 26.3127 8.41558 26.1186C8.52403 25.992 8.54727 25.8452 8.57552 25.6794C8.59788 25.5742 8.59788 25.4656 8.57552 25.3604C8.55271 25.2731 8.51189 25.1914 8.45568 25.1208C8.32992 25.026 8.14994 24.8893 7.93625 24.7212C7.53847 24.4081 7.04273 24.0026 6.77846 23.7643C6.47454 23.4909 6.08132 23.0754 5.46028 22.1267C4.44465 20.5775 3.7457 19.5027 3.30372 17.8934C2.95179 16.5932 2.84365 15.2392 2.98477 13.8996C2.96515 13.7991 2.92429 13.7039 2.86494 13.6203C2.76508 13.487 2.62524 13.3889 2.4658 13.3406C2.32469 13.2915 2.1737 13.2779 2.0261 13.3009C1.66523 13.3606 1.46748 13.639 1.42693 13.6987Z" fill="#E8FDFB"/>
<path d="M26.8664 13.8187C26.9081 13.6987 26.9763 13.5897 27.066 13.4998C27.1554 13.4094 27.2646 13.3411 27.3849 13.3002C27.541 13.2518 27.7081 13.2518 27.8643 13.3002C28.0817 13.3626 28.2674 13.5053 28.3837 13.6993C28.419 13.7614 28.446 13.8279 28.4639 13.8971C28.582 15.4551 28.4334 17.0219 28.0246 18.5301C27.6449 19.8858 27.0661 21.1778 26.3073 22.3638C25.8207 23.1298 25.0871 24.263 23.7512 25.3592C23.2994 25.7298 22.8186 26.0636 22.3136 26.3575C22.1954 26.3853 22.0723 26.3853 21.9541 26.3575C21.8372 26.3287 21.7282 26.274 21.6352 26.1976C21.4845 26.0892 21.3727 25.9352 21.3162 25.7584C21.2584 25.5435 21.287 25.3145 21.3959 25.1205C21.5782 24.9897 21.8279 24.8015 22.1149 24.5614C24.2109 22.8099 25.1951 20.847 25.3897 20.4479C26.1187 18.9533 26.3397 17.6803 26.5875 16.2559C26.7275 15.4496 26.8207 14.6358 26.8664 13.8187Z" fill="#E8FDFB"/>
<path d="M10.122 6.1369C10.4592 5.95464 11.7924 5.25979 13.681 5.06067C17.3717 4.67201 20.06 6.50233 20.5922 6.88324C21.917 7.82846 22.996 9.0773 23.7389 10.5252C25.0028 12.9857 24.8848 15.2229 24.8561 15.6571C24.6502 18.7327 22.9894 20.7448 22.4959 21.3239C21.7573 22.1929 19.7192 24.2879 16.3711 24.759C13.0623 25.2247 10.6032 23.8049 9.91467 23.3921C8.87718 22.7715 7.02271 21.4105 5.90046 18.9222C5.59108 18.2388 4.64562 15.9319 5.19695 13.0044C5.27851 12.5729 6.15881 8.28298 10.122 6.1369Z" fill="#3F7D9D"/>
<path d="M16.8783 9.20386H20.9394C19.4902 13.0468 18.0406 16.8893 16.5907 20.7316L12.4476 20.6496L9.24942 10.23H12.6544C13.2963 12.2813 13.9383 14.3326 14.5804 16.3839" fill="#E8FDFB"/>
</g>
<defs>
<clipPath id="clip0_240_1206">
<rect width="30" height="30" fill="white"/>
</clipPath>
</defs>
</svg>
