<svg width="1920" height="170" viewBox="0 0 1920 170" fill="none" xmlns="http://www.w3.org/2000/svg">
<mask id="mask0_240_1025" style="mask-type:alpha" maskUnits="userSpaceOnUse" x="0" y="0" width="1920" height="170">
<path d="M857.092 116.5H0V0H1920V116.5H1062.91C1051.35 116.5 1041.14 123.422 1034.15 132.636C1017.17 155.034 990.275 169.5 960 169.5C929.725 169.5 902.829 155.034 885.847 132.636C878.861 123.422 868.655 116.5 857.092 116.5Z" fill="#D9D9D9"/>
</mask>
<g mask="url(#mask0_240_1025)">
<g filter="url(#filter0_b_240_1025)">
<path d="M857.092 116.5H0V0H1920V116.5H1062.91C1051.35 116.5 1041.14 123.422 1034.15 132.636C1017.17 155.034 990.275 169.5 960 169.5C929.725 169.5 902.829 155.034 885.847 132.636C878.861 123.422 868.655 116.5 857.092 116.5Z" fill="#161616" fill-opacity="0.45"/>
<path d="M857.092 116H0.5V0.5H1919.5V116H1062.91C1051.14 116 1040.8 123.042 1033.75 132.334C1016.86 154.612 990.112 169 960 169C929.888 169 903.137 154.612 886.245 132.334C879.2 123.042 868.862 116 857.092 116Z" stroke="#4B4B4B"/>
</g>
</g>
<defs>
<filter id="filter0_b_240_1025" x="-4" y="-4" width="1928" height="177.5" filterUnits="userSpaceOnUse" color-interpolation-filters="sRGB">
<feFlood flood-opacity="0" result="BackgroundImageFix"/>
<feGaussianBlur in="BackgroundImageFix" stdDeviation="2"/>
<feComposite in2="SourceAlpha" operator="in" result="effect1_backgroundBlur_240_1025"/>
<feBlend mode="normal" in="SourceGraphic" in2="effect1_backgroundBlur_240_1025" result="shape"/>
</filter>
</defs>
</svg>
