<svg width="99" height="61" viewBox="0 0 99 61" fill="none" xmlns="http://www.w3.org/2000/svg">
<path d="M85.3839 22.201C85.3839 32.0244 77.3853 40.025 67.4724 40.025C57.5595 40.025 49.5609 32.0244 49.5609 22.201C49.5609 12.3777 57.5595 4.37692 67.4724 4.37692C77.3853 4.37692 85.3839 12.3777 85.3839 22.201Z" stroke="white" stroke-width="2.04255"/>
<path d="M1.0434 45.5554V60.0915H10.0861" stroke="white" stroke-width="1.02128"/>
<path d="M29.9104 46.2475V60.9568M24.6935 46.2475H34.7796M12.5206 46.2475H22.085" stroke="white" stroke-width="1.02128"/>
<path d="M12.5206 53.1695H22.085" stroke="white" stroke-width="1.02128"/>
<path d="M12.5206 60.0915H22.085" stroke="white" stroke-width="1.02128"/>
<path d="M38.2576 50.2277V45.5554" stroke="white" stroke-width="0.680851"/>
<path d="M63.1473 46.5725L60.6904 46.5937C62.7417 46.5338 67.9075 46.5656 68.728 46.9955C69.7536 47.5326 70.9504 48.428 70.9504 49.3233C70.9504 50.0394 70.9504 51.6512 70.9504 52.3673C70.8934 52.6656 70.6426 53.4059 70.0955 53.9791C69.4118 54.6955 69.0699 55.0534 67.0186 55.4116C65.3773 55.6981 63.7135 55.7698 63.0867 55.7698H61.2062V55.2461V60.7837" stroke="white" stroke-width="1.02128"/>
<path d="M73.3849 60.4376L79.6452 46.5936H80.3408L86.6011 60.4376" stroke="white" stroke-width="1.02128"/>
<path d="M86.949 46.2475L92.088 53.1654M92.088 53.1654L97.3828 46.4251M92.088 53.1654V60.4376" stroke="white" stroke-width="1.02128"/>
<path d="M24.2298 19.5923C16.5185 19.5923 13.5531 16.0228 13.564 12.6516C13.5756 9.09255 18.0086 4.91032 24.3936 4.91766C28.5033 4.92233 33.2725 7.09902 34.9517 9.47856H37.6778C35.823 6.9007 30.4901 3.33119 24.3936 3.33121C17.7376 3.33122 11.941 7.69393 11.7091 12.6516C11.941 18.0058 15.8827 20.7821 24.2298 21.1787C32.0911 21.1787 37.331 25.4509 37.3174 29.7454C37.3021 34.4908 32.2105 38.4402 24.2298 38.4312C18.9208 38.4253 15.6874 36.0085 13.1003 33.7514H10.0861C13.7959 37.043 17.5057 40.0177 24.2298 40.0177C32.345 40.0177 38.8373 36.0518 39.3009 29.7454C39.0689 22.9635 31.1095 19.5923 24.2298 19.5923Z" fill="white" stroke="white" stroke-width="0.340426"/>
<path d="M45.1001 52.1312C42.5897 52.1312 41.7323 50.5751 41.7355 49.3752C41.7393 47.9472 43.0748 46.3482 45.1536 46.351C46.4916 46.3531 47.9687 47.2266 48.5912 48.1019H49.387C48.8653 47.1128 47.8219 45.9014 45.1536 45.7284C42.2314 45.808 41.2138 47.6319 41.0399 49.3752C41.0336 51.6986 42.605 52.8234 45.1001 52.877C47.6598 52.877 49.5654 54.5608 49.5609 56.2844C49.556 58.1886 47.6797 59.6454 45.0813 59.6419C43.3531 59.6395 42.23 58.749 41.3877 57.8432H40.5182C41.5616 59.2262 42.7618 60.2645 45.1001 60.2645C47.631 60.2645 50.0826 58.7971 50.0826 56.2356C50.0826 53.5156 47.4132 52.1312 45.1001 52.1312Z" fill="white" stroke="white" stroke-width="0.340426"/>
</svg>
