<svg width="31" height="30" viewBox="0 0 31 30" fill="none" xmlns="http://www.w3.org/2000/svg">
<g clip-path="url(#clip0_240_1228)">
<path d="M11.2731 3.48009C11.4594 3.54909 11.6571 3.56829 11.8497 3.60969C13.0617 3.87129 14.2581 4.19319 15.4461 4.54569C16.6185 4.89339 17.7924 5.23569 18.9282 5.69529C19.7082 6.00939 20.4543 6.38229 21.1362 6.87879C22.2402 7.68279 22.926 8.75709 23.2194 10.0855C23.4237 11.0107 23.4795 11.9482 23.4387 12.8926C23.4087 13.6222 23.2839 14.3326 22.9887 15.0049C22.6587 15.7522 22.1589 16.3405 21.39 16.6633C20.7378 16.9369 20.0625 16.9414 19.38 16.8031C18.9489 16.7161 18.5385 16.5661 18.1377 16.3855C18.0522 16.3471 18.0288 16.3012 18.0288 16.2103C18.0316 13.8777 18.0321 11.5452 18.0303 9.21279C18.0303 8.81229 18.0159 8.41269 17.8734 8.03049C17.7309 7.64829 17.463 7.39149 17.0634 7.28049C16.7595 7.19769 16.5147 7.28319 16.3377 7.54569C16.179 7.78089 16.1277 8.04849 16.1076 8.32569C16.1001 8.43519 16.1034 8.54529 16.1034 8.65569V26.3857C16.1034 26.5387 16.1034 26.5393 15.9651 26.4952C14.4217 26.0054 12.8785 25.5161 11.3355 25.0273C11.2566 25.0024 11.2257 24.9736 11.2257 24.8848C11.2281 17.7848 11.2288 10.6848 11.2278 3.58479C11.2278 3.54969 11.2278 3.51459 11.226 3.47949L11.2731 3.48009Z" fill="white"/>
<path d="M29.94 20.515C29.8302 21.1219 29.3859 21.4558 28.9131 21.7618C28.3677 22.1146 27.7686 22.3504 27.1593 22.5682C24.6131 23.4778 22.0687 24.3911 19.5261 25.3081C18.7284 25.5949 17.9301 25.8781 17.1333 26.1691C17.0418 26.2024 17.016 26.1964 17.0163 26.0902C17.0201 25.2266 17.0201 24.3629 17.0163 23.4991C17.0163 23.4166 17.037 23.3773 17.1192 23.3491C19.5094 22.5013 21.8987 21.6513 24.2871 20.7991C24.5595 20.7019 24.8358 20.6158 25.0992 20.4943C25.2214 20.4405 25.3354 20.3698 25.4379 20.2843C25.6806 20.0743 25.6611 19.8625 25.3821 19.7053C25.1637 19.582 24.9222 19.5304 24.6765 19.5007C23.7231 19.3852 22.8081 19.5367 21.9081 19.8607C20.3211 20.4337 18.7263 20.9848 17.1357 21.5485C17.034 21.5845 17.0157 21.5671 17.0157 21.4612C17.0195 20.5612 17.0195 19.6622 17.0157 18.7642C17.0157 18.6835 17.0388 18.652 17.115 18.6259C18.1584 18.2659 19.2303 18.034 20.3202 17.8711C21.2134 17.7355 22.1173 17.6838 23.0202 17.7166C24.6102 17.7766 26.1651 18.0328 27.6663 18.5806C28.137 18.7522 28.6092 18.9157 29.0373 19.1827C29.2728 19.3249 29.4834 19.5048 29.6607 19.7152C29.808 19.8952 29.886 20.1052 29.9388 20.3257L29.94 20.515Z" fill="white"/>
<path d="M10.2864 21.09V21.1734C10.2864 21.9534 10.2864 22.7361 10.2888 23.5173C10.2888 23.5956 10.2684 23.6241 10.1919 23.6373C9.0519 23.8359 7.9062 23.9322 6.7479 23.8929C5.0814 23.8365 3.4701 23.505 1.8978 22.9629C1.3677 22.7832 0.869997 22.5387 0.471897 22.1301C0.279297 21.933 0.135297 21.7062 0.0818966 21.4326C0.0146966 21.0942 0.116697 20.7984 0.329997 20.5362C0.534597 20.2845 0.807297 20.1183 1.08 19.9569C1.8276 19.5156 2.6316 19.2021 3.4476 18.9135C5.6842 18.1223 7.9196 17.3285 10.1538 16.5321C10.194 16.5177 10.2342 16.5045 10.2858 16.4868V16.6221C10.2858 17.478 10.284 18.3339 10.2885 19.1898C10.2885 19.2906 10.2558 19.3287 10.1643 19.3611C8.5191 19.9467 6.8747 20.5348 5.2311 21.1254C5.06762 21.1799 4.91246 21.2568 4.77 21.3537C4.71197 21.3938 4.65801 21.4396 4.6089 21.4902C4.4544 21.654 4.4724 21.8295 4.6557 21.9594C4.8456 22.0938 5.0652 22.1535 5.2902 22.1877C6.2856 22.3377 7.248 22.2081 8.1867 21.8517C8.8551 21.5979 9.5301 21.3615 10.2021 21.1173C10.2246 21.1095 10.2471 21.1035 10.2864 21.09Z" fill="white"/>
</g>
<defs>
<clipPath id="clip0_240_1228">
<rect width="30.3191" height="30" fill="white" transform="translate(0.212769)"/>
</clipPath>
</defs>
</svg>
