<svg width="30" height="30" viewBox="0 0 30 30" fill="none" xmlns="http://www.w3.org/2000/svg">
<g clip-path="url(#clip0_240_1199)">
<path d="M15 29.8425C23.1973 29.8425 29.8425 23.1973 29.8425 15C29.8425 6.80268 23.1973 0.157471 15 0.157471C6.80271 0.157471 0.157501 6.80268 0.157501 15C0.157501 23.1973 6.80271 29.8425 15 29.8425Z" fill="url(#paint0_linear_240_1199)"/>
<path d="M19.8237 5.35229C16.7499 5.35229 14.2578 7.8444 14.2578 10.9185C14.259 11.0679 14.2663 11.2171 14.2797 11.3661C13.3224 12.5361 10.7133 15.4827 10.485 15.7461C9.60793 15.7566 8.75343 16.0256 8.02853 16.5195C7.30363 17.0134 6.74054 17.7102 6.40979 18.5226C6.07903 19.335 5.9953 20.2269 6.16909 21.0867C6.34287 21.9464 6.76645 22.7358 7.38677 23.356C8.00709 23.9761 8.79659 24.3995 9.6564 24.573C10.5162 24.7466 11.4081 24.6626 12.2204 24.3317C13.0327 24.0007 13.7294 23.4374 14.223 22.7124C14.7167 21.9874 14.9855 21.1328 14.9958 20.2557L19.3716 16.4625C19.5218 16.4761 19.6725 16.4834 19.8237 16.4844C22.8978 16.4844 25.3896 13.9923 25.3896 10.9185C25.3896 7.8447 22.8978 5.35229 19.8237 5.35229ZM19.8237 7.57889C20.4842 7.5789 21.1298 7.77472 21.6789 8.14161C22.2281 8.50851 22.6561 9.02999 22.909 9.64014C23.1618 10.2503 23.228 10.9217 23.0993 11.5695C22.9705 12.2172 22.6526 12.8123 22.1857 13.2794C21.7188 13.7465 21.1239 14.0647 20.4762 14.1937C19.8284 14.3228 19.157 14.2568 18.5467 14.0043C17.9365 13.7518 17.4148 13.324 17.0477 12.775C16.6805 12.226 16.4844 11.5804 16.4841 10.92C16.4839 10.4813 16.5702 10.0469 16.7379 9.64152C16.9056 9.23617 17.1516 8.86784 17.4617 8.55757C17.7719 8.2473 18.1401 8.00117 18.5454 7.83325C18.9506 7.66533 19.385 7.57889 19.8237 7.57889ZM10.5819 17.2263C11.2163 17.2338 11.8316 17.4443 12.3377 17.8268C12.8438 18.2094 13.2141 18.744 13.3944 19.3523C13.5746 19.9605 13.5554 20.6106 13.3394 21.2071C13.1234 21.8036 12.7221 22.3154 12.1942 22.6673C11.6664 23.0192 11.0397 23.1928 10.4059 23.1627C9.77222 23.1327 9.16479 22.9004 8.67263 22.5001C8.18046 22.0998 7.82942 21.5523 7.67094 20.938C7.51245 20.3237 7.55485 19.6748 7.79192 19.0863C8.01625 18.5318 8.40242 18.0578 8.90009 17.7261C9.39775 17.3943 9.98383 17.2201 10.5819 17.2263Z" fill="white"/>
<path d="M19.8237 8.3208C20.3374 8.3208 20.8396 8.47314 21.2667 8.75854C21.6939 9.04395 22.0268 9.44961 22.2234 9.92422C22.42 10.3988 22.4714 10.9211 22.3712 11.4249C22.271 11.9288 22.0236 12.3916 21.6603 12.7548C21.2971 13.1181 20.8343 13.3655 20.3304 13.4657C19.8266 13.5659 19.3043 13.5145 18.8297 13.3179C18.3551 13.1213 17.9494 12.7884 17.664 12.3612C17.3786 11.9341 17.2263 11.4319 17.2263 10.9182C17.2263 10.5771 17.2935 10.2394 17.424 9.92422C17.5545 9.60909 17.7459 9.32275 17.987 9.08156C18.2282 8.84037 18.5146 8.64905 18.8297 8.51852C19.1448 8.38798 19.4826 8.3208 19.8237 8.3208Z" fill="white"/>
<path d="M0.953394 13.9348C0.921994 14.2892 0.904194 14.6443 0.899994 15.0001C0.902422 16.3347 1.09434 17.6621 1.46999 18.9427L9.71669 22.2601C10.2634 22.475 10.8729 22.465 11.4123 22.2325C11.9517 21.9999 12.3774 21.5636 12.5965 21.0186C12.8157 20.4736 12.8105 19.8641 12.5823 19.3229C12.354 18.7816 11.921 18.3526 11.3778 18.1291L0.953394 13.9348Z" fill="white"/>
</g>
<defs>
<linearGradient id="paint0_linear_240_1199" x1="15" y1="0.157171" x2="15" y2="29.8422" gradientUnits="userSpaceOnUse">
<stop stop-color="#054E87"/>
<stop offset="1" stop-color="#1D99F3"/>
</linearGradient>
<clipPath id="clip0_240_1199">
<rect width="30" height="30" fill="white"/>
</clipPath>
</defs>
</svg>
