<svg width="30" height="30" viewBox="0 0 30 30" fill="none" xmlns="http://www.w3.org/2000/svg">
<g clip-path="url(#clip0_240_1181)">
<path d="M15.0111 29.9595C23.2682 29.9595 29.9619 23.2658 29.9619 15.0087C29.9619 6.75156 23.2682 0.0578613 15.0111 0.0578613C6.754 0.0578613 0.0603027 6.75156 0.0603027 15.0087C0.0603027 23.2658 6.754 29.9595 15.0111 29.9595Z" fill="#007E00"/>
<path d="M15.0657 4.36999C17.4459 3.03863 20.1187 2.31718 22.8456 2.26999C21.9914 1.69138 21.0717 1.21587 20.1057 0.853388C19.7757 0.730088 18.1257 0.127088 15.8487 0.0208876C13.9852 -0.0515162 12.123 0.195031 10.3425 0.749888C9.24481 1.10059 8.535 1.46749 8.3733 1.55209C7.99621 1.74953 7.63089 1.96869 7.27921 2.20849C8.29441 2.37139 9.38431 2.59039 10.5333 2.88469C12.075 3.27999 13.5891 3.77616 15.0657 4.36999Z" fill="white"/>
<path d="M19.05 8.27726C19.7421 7.63676 20.3439 7.11056 20.8083 6.71456C20.8083 6.71456 21.7452 5.92856 22.9962 5.07356C23.2595 4.90012 23.5336 4.74351 23.8167 4.60466C24.2412 4.39466 24.4812 4.32446 24.7167 4.29206C24.8967 4.26746 25.1049 4.24556 25.3416 4.33106C25.5666 4.41236 25.7016 4.55156 25.836 4.69106C26.2686 5.14556 26.5986 5.51786 26.8527 5.82746C27.0268 6.03298 27.1881 6.24899 27.3357 6.47426C27.4221 6.60806 27.4557 6.67286 27.5544 6.83906C27.789 7.23416 27.9222 7.41686 28.0644 7.64126C28.3116 8.03126 28.464 8.35436 28.7208 8.91746C28.9749 9.46217 29.1942 10.0225 29.3772 10.5951C29.4537 10.839 29.7477 11.8032 29.8872 13.257C29.9736 14.1543 30.1548 16.2342 29.4861 18.7998C29.2181 19.8343 28.8391 20.8368 28.3557 21.7899C27.9336 22.6142 27.4329 23.3958 26.8605 24.1239C26.8605 23.9439 26.8632 23.6784 26.8644 23.3577C26.8662 22.8501 26.8707 22.596 26.8644 22.4982C26.8292 22.0073 26.7374 21.5222 26.5908 21.0525C25.9623 18.9672 25.2624 17.6142 25.2624 17.6142C24.4074 15.96 22.2474 12.5355 19.05 8.27726Z" fill="white"/>
<path d="M10.8876 8.27738C10.555 7.89495 10.2029 7.52987 9.8328 7.18358C9.55987 6.92068 9.27285 6.67281 8.973 6.44108C8.793 6.30308 8.6946 6.23948 8.2308 5.89418C7.9113 5.65628 7.8888 5.63558 7.7619 5.54258C7.41332 5.28391 7.0478 5.04888 6.6678 4.83908C6.6678 4.83908 6.0078 4.47728 5.3004 4.29218C5.21106 4.2684 5.11922 4.25531 5.0268 4.25318C4.92114 4.24831 4.81542 4.2615 4.7142 4.29218C4.63085 4.31978 4.55193 4.35928 4.4799 4.40948C4.1898 4.60478 3.8283 5.03078 3.7785 5.08988C3.5607 5.35178 3.4443 5.50628 3.3774 5.59988C3.3633 5.61998 3.3219 5.67908 3.2616 5.75618C3.1716 5.87138 3.0984 5.95058 3.0858 5.96618C3.0135 6.04568 2.6445 6.49178 2.1012 7.42478C1.81984 7.89685 1.56416 8.38376 1.3353 8.88338C0.963938 9.70782 0.669391 10.5648 0.455398 11.4433C-0.0698412 13.6086 -0.106292 15.8637 0.348692 18.0448C0.803675 20.226 1.73867 22.2785 3.0858 24.0532C3.0645 23.8657 3.0423 23.6158 3.0342 23.3209C3.0342 23.3209 2.9766 22.4791 3.1515 21.6409C3.4611 20.1568 4.0893 18.8668 4.0893 18.8668C5.92924 15.0809 8.21125 11.5263 10.8876 8.27738Z" fill="white"/>
<path d="M15.0657 12.0283C15.5019 12.3757 16.065 12.8365 16.7067 13.3957C18.1119 14.6209 19.0992 15.6268 19.3245 15.8572C20.2545 16.8112 20.2422 16.8922 23.3097 20.6239C23.8127 21.2599 24.2573 21.94 24.6381 22.6558C24.8647 23.0745 25.0355 23.5211 25.146 23.9842C25.2042 24.241 25.2434 24.5017 25.2633 24.7642C25.2954 25.1305 25.2801 25.3042 25.2672 25.4032C25.2492 25.5384 25.2191 25.6718 25.1772 25.8016L24.9972 26.1316C23.0694 27.9356 20.6779 29.1678 18.09 29.6905C17.184 29.8788 16.2622 29.9812 15.3369 29.9962C15.1812 29.9983 14.7489 30.001 14.1858 29.9662C13.5073 29.9207 12.8322 29.8336 12.1644 29.7052C11.5764 29.5936 10.8489 29.452 9.94019 29.1217C9.49709 28.9609 9.16019 28.8094 8.88269 28.6843C8.34455 28.4482 7.82093 28.1804 7.31459 27.8821C6.93581 27.6597 6.57038 27.4153 6.22019 27.1501C5.82659 26.8477 5.54729 26.5867 5.29769 26.2906C5.02979 25.9729 4.94459 25.7923 4.90769 25.7044C4.88009 25.6402 4.76189 25.3534 4.75139 24.9244C4.74149 24.5227 4.83059 24.1972 4.94669 23.8693C5.18369 23.2 5.46509 22.7107 5.72669 22.2673C6.19769 21.4738 6.43349 21.0769 6.74249 20.6263C7.90199 18.937 9.27629 17.4463 9.51659 17.1883C11.5917 14.9509 13.7568 13.0978 15.0657 12.0283Z" fill="white"/>
</g>
<defs>
<clipPath id="clip0_240_1181">
<rect width="30" height="30" fill="white"/>
</clipPath>
</defs>
</svg>
