<svg width="54" height="36" viewBox="0 0 54 36" fill="none" xmlns="http://www.w3.org/2000/svg">
<path d="M49.1823 15.8503V17.4657H49.7694C50.3887 17.4657 50.874 17.2355 50.874 16.6214C50.874 16.2149 50.6738 15.8486 49.8933 15.8486C49.6489 15.8486 49.5166 15.8399 49.1823 15.8503ZM47.5602 21.5565V14.2664C47.9555 14.2664 49.7694 14.2664 49.973 14.2664C51.909 14.2664 52.5979 15.2555 52.5979 16.6005C52.5979 17.9542 51.7869 18.5072 51.4017 18.706L53.4531 21.5565H51.4865L49.7796 19.0288H49.1823V21.5565H47.5602Z" fill="white"/>
<path d="M45.5979 18.4199C45.5979 20.6494 44.2201 21.5565 42.6998 21.5565C40.8758 21.5565 39.6083 20.4837 39.6083 18.3467V14.2664H41.2304V17.9926C41.2304 19.1282 41.5647 19.9935 42.6998 19.9935C43.6822 19.9935 43.9758 19.2538 43.9758 18.0868V14.2664H45.5979V18.4199Z" fill="white"/>
<path d="M35.5819 35.9H0.664062V0H35.5819V12.283H33.9632V1.66425H2.28109V34.2358H33.9632V23.5368H35.5819V35.9Z" fill="white"/>
<path d="M28.6111 21.5585L25.2464 17.1815V21.5585H23.7244V14.2646H25.0224L28.3888 18.6608L28.3854 14.2646H29.9058L29.9092 21.5585H28.6111Z" fill="white"/>
<path d="M31.8652 14.2637H37.7446V15.8267H35.6151V21.5591H33.993V15.8267H31.8652V14.2637Z" fill="white"/>
<path d="M7.79639 14.2637H9.41851V17.4421L11.7397 14.2637H13.6859L11.0203 17.6305L13.898 21.5591H11.8415L9.41851 18.0876V21.5591H7.79639V14.2637Z" fill="white"/>
<path d="M18.1288 20.0548C19.437 20.0548 20.1157 19.104 20.1157 17.9107C20.1157 16.6163 19.2402 15.7667 18.1288 15.7667C16.9885 15.7667 16.1435 16.6163 16.1435 17.9107C16.1435 19.1232 17.0275 20.0548 18.1288 20.0548ZM18.1288 14.2507C20.2243 14.2507 21.7888 15.6551 21.7888 17.9107C21.7888 20.0548 20.2243 21.5707 18.1288 21.5707C16.0349 21.5707 14.4705 20.1647 14.4705 17.9107C14.4705 15.8574 15.9365 14.2507 18.1288 14.2507Z" fill="white"/>
</svg>
